<svg width="22.000000" height="19.000000" viewBox="0 0 22 19" fill="none" xmlns="http://www.w3.org/2000/svg" xmlns:xlink="http://www.w3.org/1999/xlink">
	<desc>
			Created with Pixso.
	</desc>
	<defs/>
	<path id="Shape (Stroke)" d="M11.2 1.25C12.33 0.13 13.85 -0.51 15.44 -0.51C17.04 -0.51 18.56 0.13 19.69 1.25C20.81 2.38 21.45 3.9 21.45 5.5C21.45 7.09 20.81 8.61 19.69 9.74L10.85 18.58C10.65 18.77 10.33 18.77 10.14 18.58L1.3 9.74C-1.04 7.39 -1.04 3.6 1.3 1.25C3.64 -1.09 7.44 -1.09 9.79 1.25L10.49 1.96L11.2 1.25ZM15.44 0.49C14.12 0.49 12.84 1.02 11.91 1.96L10.85 3.02C10.75 3.11 10.63 3.16 10.49 3.16C10.36 3.16 10.23 3.11 10.14 3.02L9.08 1.96C7.13 0.01 3.96 0.01 2.01 1.96C0.05 3.91 0.05 7.08 2.01 9.03L10.49 17.52L18.98 9.03C19.92 8.09 20.45 6.82 20.45 5.5C20.45 4.17 19.92 2.9 18.98 1.96C18.04 1.02 16.77 0.49 15.44 0.49Z" fill="#414141" fill-opacity="1.000000" fill-rule="evenodd"/>
</svg>
